<?xml version="1.0" encoding="UTF-8"?>
<svg xmlns="http://www.w3.org/2000/svg" version="1.1" viewBox="0 0 30.6 40.8">
  <defs>
    <style>
      .cls-1 {
        fill: #fff;
      }
    </style>
  </defs>
  <!-- Generator: Adobe Illustrator 28.6.0, SVG Export Plug-In . SVG Version: 1.2.0 Build 709)  -->
  <g>
    <g id="Layer_1">
      <g id="Layer_1-2" data-name="Layer_1">
        <g>
          <path class="cls-1" d="M14.9,26.8c5,0,9-4,9-9.1s-4-9.1-9.1-9.1-9,4-9,9.1,4,9.1,9.1,9.1ZM14.9,13.5c2.4,0,4.2,1.9,4.2,4.3s-1.9,4.2-4.3,4.2c-2.4,0-4.2-1.9-4.2-4.3s1.9-4.2,4.3-4.2Z"/>
          <path class="cls-1" d="M19.2,26.6c-.4,2.9-2,4.4-4.3,4.5-2.3,0-3.9-1.5-4.4-4.3h-4.7c.1,3.9,1.9,6.7,5.2,8.3s6.7,1.1,9.6-1.3c2.2-1.8,3.2-4.2,3.2-7.1h-4.7Z"/>
          <path class="cls-1" d="M23.7,11.1V2.7c-2.4,0-4.2,1.9-4.2,4.2,0,2.3,1.9,4.2,4.2,4.1Z"/>
        </g>
      </g>
    </g>
  </g>
</svg>